<svg width="70" height="70" viewBox="0 0 70 70" fill="none" xmlns="http://www.w3.org/2000/svg">
<path d="M63.5185 12.3529H51.8518V9.60784C51.8518 7.05968 50.8958 4.61589 49.1941 2.81407C47.4924 1.01225 45.1844 0 42.7778 0H27.2222C24.8156 0 22.5076 1.01225 20.8059 2.81407C19.1042 4.61589 18.1481 7.05968 18.1481 9.60784V12.3529H6.48148C4.76249 12.3529 3.1139 13.076 1.89838 14.363C0.682868 15.65 0 17.3956 0 19.2157V63.1373C0 64.9574 0.682868 66.7029 1.89838 67.99C3.1139 69.277 4.76249 70 6.48148 70H63.5185C65.2375 70 66.8861 69.277 68.1016 67.99C69.3171 66.7029 70 64.9574 70 63.1373V19.2157C70 17.3956 69.3171 15.65 68.1016 14.363C66.8861 13.076 65.2375 12.3529 63.5185 12.3529ZM25.9259 9.60784C25.9259 9.24382 26.0625 8.89471 26.3056 8.63731C26.5487 8.3799 26.8784 8.23529 27.2222 8.23529H42.7778C43.1216 8.23529 43.4513 8.3799 43.6944 8.63731C43.9375 8.89471 44.0741 9.24382 44.0741 9.60784V12.3529H25.9259V9.60784ZM44.0741 20.5882V61.7647H25.9259V20.5882H44.0741ZM7.77778 20.5882H18.1481V61.7647H7.77778V20.5882ZM62.2222 61.7647H51.8518V20.5882H62.2222V61.7647Z" fill="#BEEAEC"/>
</svg>
