<svg width="68" height="75" viewBox="0 0 68 75" fill="none" xmlns="http://www.w3.org/2000/svg">
<path d="M16.9425 43.0306C9.48375 43.0306 3.4425 50.0328 3.4425 58.6781C3.4425 67.3233 9.48375 74.3256 16.9425 74.3256C24.4012 74.3256 30.4425 67.3233 30.4425 58.6781C30.4425 50.0328 24.4012 43.0306 16.9425 43.0306ZM16.9425 66.5018C13.23 66.5018 10.1925 62.9811 10.1925 58.6781C10.1925 54.375 13.23 50.8543 16.9425 50.8543C20.655 50.8543 23.6925 54.375 23.6925 58.6781C23.6925 62.9811 20.655 66.5018 16.9425 66.5018ZM37.125 43.0306V74.3256H64.125V43.0306H37.125ZM57.375 66.5018H43.875V50.8543H57.375V66.5018ZM16.875 0L0 35.2069H33.75L16.875 0ZM16.875 16.1169L22.275 27.3831H11.475L16.875 16.1169ZM58.2188 1.95594C54.6413 1.95594 52.11 4.14659 50.625 6.53283C49.14 4.14659 46.6087 1.95594 43.0312 1.95594C37.7663 1.95594 33.75 6.96313 33.75 12.7136C33.75 20.5373 41.9175 26.0922 50.625 35.2069C59.3325 26.0922 67.5 20.5373 67.5 12.7136C67.5 6.96313 63.4837 1.95594 58.2188 1.95594ZM50.625 24.8404C45.7313 20.0679 40.5 15.4519 40.5 12.7136C40.5 11.0315 41.6813 9.77968 43.0312 9.77968C44.0775 9.77968 44.7862 10.4447 45.495 11.2271L50.625 16.8211L55.755 11.2271C56.4638 10.4447 57.1725 9.77968 58.2188 9.77968C59.5687 9.77968 60.75 11.0315 60.75 12.7136C60.75 15.4519 55.5187 20.0679 50.625 24.8404Z" fill="#BEEAEC"/>
</svg>
