<svg width="68" height="79" viewBox="0 0 68 79" fill="none" xmlns="http://www.w3.org/2000/svg">
<path d="M40.1959 5.73318C39.8567 4.03294 39.0114 2.52652 37.8093 1.47973C36.6071 0.432947 35.1252 -0.0869154 33.6252 0.0118798C32.1252 0.110675 30.7035 0.821777 29.6109 2.01971C28.5182 3.21763 27.825 4.82539 27.6534 6.55927C27.4818 8.29314 27.843 10.0417 28.6731 11.4964C29.5033 12.9511 30.749 14.0184 32.1906 14.5099C33.6322 15.0015 35.1769 14.8858 36.5522 14.1832C37.9275 13.4806 39.045 12.2362 39.7074 10.6698C43.7403 11.7357 47.4893 13.9257 50.6309 17.0507C53.7725 20.1757 56.2123 24.1418 57.7396 28.6068L61.6278 26.8307C59.8286 21.5348 56.9306 16.8376 53.1915 13.1569C49.4524 9.4761 44.9882 6.92593 40.1959 5.73318ZM34.0143 9.90128C33.7296 9.9119 33.4461 9.85595 33.1804 9.73675C32.9148 9.61755 32.6725 9.43753 32.4679 9.2074C32.2633 8.97727 32.1007 8.70171 31.9896 8.39711C31.8785 8.09251 31.8213 7.76507 31.8213 7.43426C31.8213 7.10345 31.8785 6.77602 31.9896 6.47141C32.1007 6.16681 32.2633 5.89125 32.4679 5.66112C32.6725 5.43099 32.9148 5.25097 33.1804 5.13177C33.4461 5.01258 33.7296 4.95662 34.0143 4.96724C34.5778 4.96724 35.1182 5.22729 35.5167 5.69019C35.9152 6.15308 36.1391 6.7809 36.1391 7.43553C36.1391 8.09016 35.9152 8.71798 35.5167 9.18088C35.1182 9.64377 34.5778 9.90128 34.0143 9.90128ZM24.6674 11.9522L23.0968 7.43808C18.5379 9.52811 14.4944 12.8946 11.3259 17.2382C8.15736 21.5818 5.96208 26.7677 4.93532 32.3347C3.47169 32.7287 2.17491 33.7106 1.2738 35.1072C0.372696 36.5037 -0.0748198 38.2251 0.0102265 39.9676C0.0952728 41.7101 0.707415 43.3617 1.73863 44.631C2.76985 45.9002 4.15386 46.7056 5.64644 46.9049C7.13903 47.1042 8.64424 46.6846 9.89648 45.7203C11.1487 44.7559 12.0675 43.3088 12.4907 41.6341C12.9138 39.9595 12.8142 38.165 12.2094 36.5674C11.6046 34.9698 10.5334 33.6717 9.1849 32.9022C10.1063 28.2118 11.9976 23.8528 14.6953 20.2024C17.393 16.5521 20.8157 13.7204 24.6674 11.9522ZM6.39858 41.984C6.11954 41.984 5.84324 41.9201 5.58545 41.7961C5.32766 41.672 5.09343 41.4902 4.89612 41.261C4.69882 41.0318 4.54231 40.7597 4.43553 40.4602C4.32874 40.1608 4.27379 39.8398 4.27379 39.5157C4.27379 39.1915 4.32874 38.8706 4.43553 38.5711C4.54231 38.2716 4.69882 37.9995 4.89612 37.7703C5.09343 37.5411 5.32766 37.3593 5.58545 37.2353C5.84324 37.1112 6.11954 37.0474 6.39858 37.0474C6.9621 37.0474 7.50255 37.3074 7.90103 37.7703C8.2995 38.2332 8.52337 38.861 8.52337 39.5157C8.52337 40.1703 8.2995 40.7981 7.90103 41.261C7.50255 41.7239 6.9621 41.984 6.39858 41.984ZM34.0143 64.1909C32.8293 64.1954 31.6688 64.5835 30.6631 65.3117C29.6575 66.0399 28.8465 67.0793 28.3211 68.3132C24.2876 67.2474 20.538 65.0572 17.396 61.9317C14.254 58.8062 11.814 54.8394 10.2867 50.3736L6.40077 52.1981C8.20579 57.5029 11.1135 62.206 14.8643 65.8873C18.6152 69.5687 23.0924 72.1139 27.8962 73.2956C28.1721 74.6541 28.773 75.8944 29.6294 76.8733C30.4859 77.8523 31.5631 78.5301 32.7369 78.8287C33.9106 79.1272 35.1331 79.0343 36.2633 78.5606C37.3936 78.0869 38.3856 77.2518 39.1249 76.1516C39.8643 75.0513 40.3209 73.7307 40.4421 72.342C40.5633 70.9533 40.3441 69.5531 39.8099 68.3029C39.2757 67.0526 38.4481 66.0032 37.4227 65.2757C36.3973 64.5482 35.2157 64.1721 34.0143 64.1909ZM34.0143 74.0616C33.4507 74.0616 32.9103 73.8015 32.5118 73.3386C32.1133 72.8757 31.8895 72.2479 31.8895 71.5933C31.8895 70.9386 32.1133 70.3108 32.5118 69.8479C32.9103 69.385 33.4507 69.125 34.0143 69.125C34.5778 69.125 35.1182 69.385 35.5167 69.8479C35.9152 70.3108 36.1391 70.9386 36.1391 71.5933C36.1391 72.2479 35.9152 72.8757 35.5167 73.3386C35.1182 73.8015 34.5778 74.0616 34.0143 74.0616ZM68 39.5131C68.0038 38.1919 67.7034 36.8936 67.1297 35.7528C66.556 34.6119 65.73 33.6702 64.7374 33.0252C63.7447 32.3803 62.6216 32.0556 61.4846 32.0848C60.3475 32.114 59.2379 32.4961 58.2708 33.1915C57.3037 33.8868 56.5144 34.8701 55.9847 36.0393C55.455 37.2085 55.2043 38.521 55.2585 39.8407C55.3127 41.1604 55.6699 42.4393 56.293 43.5446C56.916 44.6499 57.7824 45.5414 58.802 46.1266C57.8842 50.8118 55.9987 55.167 53.3082 58.8165C50.6177 62.466 47.203 65.3001 43.359 67.074L44.9318 71.5907C49.4983 69.4939 53.5469 66.1161 56.7159 61.7589C59.885 57.4017 62.076 52.2007 63.0932 46.6203C64.476 46.2404 65.7099 45.3347 66.5988 44.047C67.4878 42.7594 67.981 41.1636 68 39.5131ZM61.6256 41.9814C61.0621 41.9814 60.5216 41.7214 60.1231 41.2585C59.7247 40.7956 59.5008 40.1678 59.5008 39.5131C59.5008 38.8585 59.7247 38.2307 60.1231 37.7678C60.5216 37.3049 61.0621 37.0448 61.6256 37.0448C62.1891 37.0448 62.7296 37.3049 63.128 37.7678C63.5265 38.2307 63.7504 38.8585 63.7504 39.5131C63.7504 40.1678 63.5265 40.7956 63.128 41.2585C62.7296 41.7214 62.1891 41.9814 61.6256 41.9814Z" fill="#BEEAEC"/>
<path d="M41.8121 40.5848C43.4052 38.9182 44.4985 36.7808 44.9524 34.4455C45.4063 32.1101 45.2002 29.6828 44.3603 27.4736C43.5205 25.2643 42.0851 23.3733 40.2374 22.0422C38.3897 20.711 36.2136 20 33.987 20C31.7604 20 29.5843 20.711 27.7366 22.0422C25.8889 23.3733 24.4535 25.2643 23.6137 27.4736C22.7738 29.6828 22.5677 32.1101 23.0216 34.4455C23.4755 36.7808 24.5688 38.9182 26.1619 40.5848C24.2657 41.9573 22.7124 43.8068 21.6382 45.9716C20.564 48.1363 20.0015 50.5502 20 53.0018V59H48V52.9987C47.9957 50.5446 47.4292 48.1291 46.3503 45.9641C45.2715 43.7992 43.7131 41.9541 41.8121 40.5848ZM28.3997 32.0005C28.3997 31.2124 28.5446 30.432 28.8261 29.7039C29.1076 28.9758 29.5203 28.3142 30.0404 27.757C30.5606 27.1997 31.1781 26.7576 31.8578 26.4561C32.5374 26.1545 33.2658 25.9992 34.0014 25.9992C34.7371 25.9992 35.4655 26.1545 36.1451 26.4561C36.8248 26.7576 37.4423 27.1997 37.9625 27.757C38.4826 28.3142 38.8953 28.9758 39.1768 29.7039C39.4583 30.432 39.6032 31.2124 39.6032 32.0005C39.6032 33.5921 39.013 35.1186 37.9625 36.244C36.9119 37.3695 35.4871 38.0018 34.0014 38.0018C32.5158 38.0018 31.0909 37.3695 30.0404 36.244C28.9899 35.1186 28.3997 33.5921 28.3997 32.0005ZM25.5988 52.9987C25.5781 51.8028 25.7802 50.6143 26.1931 49.503C26.606 48.3916 27.2215 47.3795 28.0036 46.5258C28.7858 45.6722 29.719 44.9941 30.7485 44.5313C31.7781 44.0684 32.8835 43.83 34 43.83C35.1166 43.83 36.2219 44.0684 37.2515 44.5313C38.281 44.9941 39.2142 45.6722 39.9963 46.5258C40.7785 47.3795 41.394 48.3916 41.8069 49.503C42.2198 50.6143 42.4218 51.8028 42.4011 52.9987H25.5988Z" fill="#BEEAEC"/>
</svg>
