<svg width="51" height="69" viewBox="0 0 51 69" fill="none" xmlns="http://www.w3.org/2000/svg">
<path d="M11.4 17H20.8M11.4 34.5H39.6M11.4 44.5H39.6M11.4 54.5H20.8M6.7 67H44.3C45.5465 67 46.742 66.4732 47.6234 65.5355C48.5048 64.5979 49 63.3261 49 62V7C49 5.67392 48.5048 4.40215 47.6234 3.46447C46.742 2.52678 45.5465 2 44.3 2H6.7C5.45348 2 4.25802 2.52678 3.3766 3.46447C2.49518 4.40215 2 5.67392 2 7V62C2 63.3261 2.49518 64.5979 3.3766 65.5355C4.25802 66.4732 5.45348 67 6.7 67Z" stroke="#BEEAEC" stroke-width="4" stroke-linecap="round" stroke-linejoin="round"/>
<path d="M39.6008 18.25C40.2497 18.25 40.7758 17.6904 40.7758 17C40.7758 16.3096 40.2497 15.75 39.6008 15.75C38.9518 15.75 38.4258 16.3096 38.4258 17C38.4258 17.6904 38.9518 18.25 39.6008 18.25Z" fill="#BEEAEC" stroke="#BEEAEC" stroke-width="4"/>
</svg>
