<svg width="75" height="75" viewBox="0 0 75 75" fill="none" xmlns="http://www.w3.org/2000/svg">
<path d="M68.667 61.5234C64.6502 54.4737 58.3781 48.9807 50.8603 45.9287C54.5989 43.1248 57.3604 39.2157 58.7538 34.7551C60.1472 30.2945 60.1018 25.5086 58.624 21.0752C57.1462 16.6418 54.311 12.7858 50.5199 10.0534C46.7288 7.32095 42.1741 5.85059 37.5009 5.85059C32.8278 5.85059 28.2731 7.32095 24.482 10.0534C20.6909 12.7858 17.8557 16.6418 16.3779 21.0752C14.9001 25.5086 14.8547 30.2945 16.2481 34.7551C17.6415 39.2157 20.403 43.1248 24.1416 45.9287C16.6238 48.9807 10.3517 54.4737 6.33493 61.5234C6.08604 61.9236 5.92015 62.3698 5.84714 62.8354C5.77412 63.301 5.79546 63.7765 5.90989 64.2337C6.02433 64.6909 6.22951 65.1204 6.51325 65.4967C6.797 65.873 7.1535 66.1884 7.56157 66.4242C7.96965 66.6599 8.42096 66.8112 8.88868 66.8691C9.3564 66.927 9.83098 66.8902 10.2842 66.761C10.7374 66.6318 11.16 66.4127 11.5269 66.1169C11.8938 65.8211 12.1975 65.4546 12.4199 65.0391C17.7285 55.8633 27.1035 50.3906 37.5009 50.3906C47.8984 50.3906 57.2734 55.8662 62.582 65.0391C63.064 65.8141 63.8284 66.3712 64.7138 66.5928C65.5991 66.8144 66.5359 66.6831 67.3261 66.2265C68.1164 65.7699 68.6981 65.024 68.9483 64.1463C69.1985 63.2687 69.0976 62.3281 68.667 61.5234ZM22.2666 28.125C22.2666 25.1119 23.1601 22.1665 24.834 19.6612C26.508 17.156 28.8873 15.2033 31.671 14.0503C34.4547 12.8972 37.5178 12.5955 40.473 13.1833C43.4282 13.7712 46.1427 15.2221 48.2733 17.3527C50.4038 19.4832 51.8548 22.1977 52.4426 25.1529C53.0304 28.1081 52.7287 31.1712 51.5757 33.9549C50.4226 36.7387 48.47 39.1179 45.9647 40.7919C43.4594 42.4659 40.514 43.3594 37.5009 43.3594C33.462 43.3547 29.5897 41.7482 26.7338 38.8922C23.8778 36.0362 22.2712 32.164 22.2666 28.125Z" fill="#757575"/>
</svg>
