<svg width="21" height="18" viewBox="0 0 21 18" fill="none" xmlns="http://www.w3.org/2000/svg">
<path d="M8.25866 6.91376L8.696 9.60278H7.1416L7.59394 6.91376H8.25866Z" fill="#090A0A"/>
<path d="M19.1393 0.973579L19.1381 0.974761C18.5274 0.37359 17.6869 0 16.7643 0H3.36377C2.44229 0 1.60299 0.371816 0.992273 0.971214L0.988074 0.975943C0.378552 1.57771 0 2.40528 0 3.31383V14.5292C0 15.4413 0.379152 16.2695 0.988074 16.8694C1.5982 17.4706 2.43989 17.8436 3.36377 17.8436H16.7643C17.6881 17.8436 18.5298 17.47 19.1393 16.8694C19.7489 16.2689 20.128 15.4395 20.128 14.5292V3.31383C20.128 2.4035 19.7495 1.57416 19.1393 0.973579ZM9.47819 13.5663L9.24002 12.0453H6.61175L6.37418 13.5663H3.27078L5.65368 3.96348H10.1987L12.5816 13.5663H9.47819ZM16.3035 13.5663H13.3615V3.96348H16.3035V13.5663Z" fill="#090A0A"/>
<path d="M8.696 9.60278H7.1416L7.59394 6.91376H8.25866L8.696 9.60278Z" fill="#090A0A"/>
<path d="M8.696 9.60278H7.1416L7.59394 6.91376H8.25866L8.696 9.60278Z" fill="#090A0A"/>
</svg>
