<svg width="24" height="24" viewBox="0 0 24 24" fill="none" xmlns="http://www.w3.org/2000/svg">
<path fill-rule="evenodd" clip-rule="evenodd" d="M6.09774 2.49198C6.21805 2.41547 6.35767 2.37483 6.50024 2.37483C6.64282 2.37483 6.78244 2.41547 6.90274 2.49198L12.0007 5.73998L17.0977 2.49198C17.2182 2.41527 17.358 2.37451 17.5007 2.37451C17.6435 2.37451 17.7833 2.41527 17.9037 2.49198L23.4037 5.99698C23.5101 6.06475 23.5976 6.15823 23.6583 6.26878C23.7189 6.37933 23.7507 6.50339 23.7507 6.62948C23.7507 6.75558 23.7189 6.87964 23.6583 6.99019C23.5976 7.10074 23.5101 7.19422 23.4037 7.26198L18.8967 10.133L23.4037 13.005C23.5101 13.0727 23.5976 13.1662 23.6583 13.2768C23.7189 13.3873 23.7507 13.5114 23.7507 13.6375C23.7507 13.7636 23.7189 13.8876 23.6583 13.9982C23.5976 14.1087 23.5101 14.2022 23.4037 14.27L18.7977 17.205L19.0177 17.351C19.1205 17.4195 19.2047 17.5123 19.2629 17.6211C19.3212 17.73 19.3517 17.8515 19.3517 17.975C19.3517 18.0984 19.3212 18.22 19.2629 18.3288C19.2047 18.4377 19.1205 18.5305 19.0177 18.599L12.4177 22.999C12.2945 23.0811 12.1498 23.1249 12.0017 23.1249C11.8537 23.1249 11.7089 23.0811 11.5857 22.999L4.98474 18.599C4.88202 18.5305 4.7978 18.4377 4.73955 18.3288C4.6813 18.22 4.65082 18.0984 4.65082 17.975C4.65082 17.8515 4.6813 17.73 4.73955 17.6211C4.7978 17.5123 4.88202 17.4195 4.98474 17.351L5.20474 17.205L0.597743 14.27C0.491186 14.2023 0.403448 14.1088 0.34266 13.9981C0.281871 13.8874 0.25 13.7632 0.25 13.637C0.25 13.5107 0.281871 13.3865 0.34266 13.2759C0.403448 13.1652 0.491186 13.0717 0.597743 13.004L5.10474 10.133L0.597743 7.25998C0.491403 7.19222 0.403865 7.09874 0.343221 6.98819C0.282577 6.87764 0.250786 6.75358 0.250786 6.62748C0.250786 6.50139 0.282577 6.37733 0.343221 6.26678C0.403865 6.15623 0.491403 6.06275 0.597743 5.99498L6.09774 2.49198ZM10.5797 13.622L9.51174 14.333L6.50074 16.251L2.39674 13.637L6.50074 11.023L10.5797 13.622ZM14.5267 14.358L13.4227 13.621L17.5007 11.023L21.6047 13.637L17.5007 16.252L14.5267 14.358ZM10.3307 15.59L6.75274 17.975L12.0017 21.474L17.2487 17.974L13.7087 15.614L12.0007 14.526L10.3307 15.59ZM12.0007 7.51798L16.1047 10.133L12.0007 12.748L7.89574 10.133L12.0007 7.51798ZM6.50074 4.01398L2.39674 6.62998L6.50074 9.24298L10.6047 6.62898L6.50074 4.01398ZM13.3967 6.62898L17.5007 9.24398L21.6047 6.62898L17.5007 4.01398L13.3967 6.62898Z" fill="#22307A"/>
</svg>
