<svg width="70" height="60" viewBox="0 0 70 60" fill="none" xmlns="http://www.w3.org/2000/svg">
<path d="M51.3518 10.5882V11.0882H51.8518H63.5185C65.1197 11.0882 66.6467 11.666 67.7656 12.6814C68.8828 13.6954 69.5 15.0596 69.5 16.4706V54.1176C69.5 55.5286 68.8828 56.8929 67.7656 57.9068C66.6467 58.9223 65.1197 59.5 63.5185 59.5H6.48148C4.88028 59.5 3.35326 58.9223 2.23441 57.9068C1.11717 56.8929 0.5 55.5286 0.5 54.1176V16.4706C0.5 15.0596 1.11717 13.6954 2.23441 12.6814C3.35326 11.666 4.88028 11.0882 6.48148 11.0882H18.1481H18.6481V10.5882V8.23529C18.6481 6.20028 19.5385 4.23754 21.1419 2.78231C22.747 1.32562 24.9334 0.5 27.2222 0.5H42.7778C45.0666 0.5 47.253 1.32562 48.8581 2.78231C50.4615 4.23754 51.3518 6.20028 51.3518 8.23529V10.5882ZM44.0741 11.0882H44.5741V10.5882V8.23529C44.5741 7.77415 44.3718 7.34297 44.0304 7.03315C43.6907 6.7248 43.2394 6.55882 42.7778 6.55882H27.2222C26.7606 6.55882 26.3093 6.7248 25.9696 7.03315C25.6282 7.34297 25.4259 7.77415 25.4259 8.23529V10.5882V11.0882H25.9259H44.0741ZM44.5741 17.6471V17.1471H44.0741H25.9259H25.4259V17.6471V52.9412V53.4412H25.9259H44.0741H44.5741V52.9412V17.6471ZM7.77778 17.1471H7.27778V17.6471V52.9412V53.4412H7.77778H18.1481H18.6481V52.9412V17.6471V17.1471H18.1481H7.77778ZM62.2222 53.4412H62.7222V52.9412V17.6471V17.1471H62.2222H51.8518H51.3518V17.6471V52.9412V53.4412H51.8518H62.2222Z" fill="#757575" stroke="#757575"/>
</svg>
