<svg width="60" height="70" viewBox="0 0 60 70" fill="none" xmlns="http://www.w3.org/2000/svg">
<path d="M15.8721 52.3953L15.874 52.3972C18.1847 54.8324 20.6821 57.068 23.3415 59.0816L23.3456 59.0846L24.8723 60.2162L24.8722 60.2162L24.8766 60.2194C25.3734 60.5794 25.8512 60.9158 26.3132 61.2284L26.3157 61.2301L27.6157 62.0979L27.6157 62.098L27.6255 62.1042L28.7688 62.8297L28.7687 62.8297L28.7766 62.8345L29.7399 63.4211L30.0014 63.5804L30.2621 63.4199L31.7788 62.4861L31.7789 62.4863L31.7899 62.4791L33.0133 61.6807L33.0161 61.6789C33.6717 61.2447 34.3772 60.7584 35.1228 60.2198L35.1228 60.2199L35.1277 60.2162L36.6544 59.0847L36.6585 59.0816C39.3179 57.068 41.8153 54.8324 44.126 52.3973L44.1278 52.3954C49.5001 46.6751 53.8333 39.4804 53.8333 31.2402C53.8333 24.6698 51.327 18.3646 46.8598 13.7126C42.3919 9.06003 36.3277 6.44226 30 6.44226C23.6723 6.44226 17.6081 9.06003 13.1402 13.7126C8.67295 18.3646 6.16667 24.6698 6.16667 31.2402C6.16667 39.4804 10.5 46.6717 15.8721 52.3953ZM30 0.5C37.8172 0.5 45.3185 3.73357 50.8526 9.49636C56.3873 15.2598 59.5 23.081 59.5 31.2402C59.5 41.7294 54.0075 50.3454 48.1631 56.566C45.2434 59.6386 42.0585 62.4247 38.6489 64.889C38.6483 64.8894 38.6477 64.8898 38.6471 64.8902L37.2353 65.891L37.2308 65.8942L36.5771 66.347L36.5687 66.3527L35.3285 67.1748L35.3204 67.1801L34.2129 67.8836L34.2085 67.8864L32.8351 68.7183C32.8344 68.7187 32.8338 68.719 32.8331 68.7194C31.9683 69.2316 30.9921 69.5 30 69.5C29.0079 69.5 28.0317 69.2315 27.1668 68.7194C27.1662 68.719 27.1656 68.7186 27.1649 68.7183L25.7878 67.884L24.0653 66.7802L23.4349 66.3529L23.4306 66.3499L22.0714 65.4074C22.0708 65.4071 22.0703 65.4067 22.0698 65.4063C18.3911 62.8133 14.9639 59.8526 11.8369 56.566C5.99245 50.3418 0.5 41.7293 0.5 31.2402C0.5 23.081 3.61274 15.2598 9.14743 9.49636C14.6815 3.73357 22.1828 0.5 30 0.5ZM30 17.8557C33.3969 17.8557 36.659 19.2607 39.0675 21.7687C41.4765 24.2773 42.8333 27.684 42.8333 31.2402C42.8333 34.7964 41.4765 38.203 39.0675 40.7117C36.659 43.2197 33.3969 44.6247 30 44.6247C26.6031 44.6247 23.341 43.2197 20.9325 40.7117C18.5235 38.203 17.1667 34.7964 17.1667 31.2402C17.1667 27.684 18.5235 24.2773 20.9325 21.7687C23.341 19.2607 26.6031 17.8557 30 17.8557ZM30 23.7979C28.0926 23.7979 26.2676 24.5871 24.9253 25.9849C23.5837 27.382 22.8333 29.2728 22.8333 31.2402C22.8333 33.2076 23.5837 35.0983 24.9253 36.4954C26.2676 37.8932 28.0926 38.6824 30 38.6824C31.9074 38.6824 33.7324 37.8932 35.0747 36.4954C36.4163 35.0983 37.1667 33.2076 37.1667 31.2402C37.1667 29.2728 36.4163 27.382 35.0747 25.9849C33.7324 24.5872 31.9074 23.7979 30 23.7979Z" fill="#BEEAEC" stroke="#BEEAEC"/>
</svg>
