<svg width="24" height="24" viewBox="0 0 24 24" fill="none" xmlns="http://www.w3.org/2000/svg">
<g clip-path="url(#clip0_290_640)">
<path fill-rule="evenodd" clip-rule="evenodd" d="M14.3109 3C14.6341 3 14.9525 3.07832 15.2388 3.22827C15.5251 3.37822 15.7708 3.59533 15.9549 3.861L16.0429 4L21.8159 14C21.9763 14.2779 22.0675 14.5904 22.0818 14.911C22.0961 15.2316 22.033 15.5509 21.8979 15.842L21.8159 16L19.5059 20C19.3443 20.2798 19.1174 20.5162 18.8445 20.6892C18.5716 20.8621 18.2609 20.9664 17.9389 20.993L17.7749 21H6.22788C5.90451 21.0002 5.58591 20.9219 5.29941 20.772C5.01291 20.622 4.76704 20.4048 4.58288 20.139L4.49588 20L2.18588 16C2.02543 15.7221 1.93422 15.4096 1.91995 15.089C1.90568 14.7684 1.96876 14.4491 2.10388 14.158L2.18588 14L7.96088 4C8.12254 3.72009 8.34964 3.48354 8.62272 3.3106C8.8958 3.13766 9.20673 3.03349 9.52888 3.007L9.69188 3H14.3109ZM19.5069 16H9.11388L7.38188 19H17.7749L19.5069 16ZM9.11488 6L3.91788 15L5.64988 18L10.8459 9L9.11488 6ZM14.3109 5H10.8469L16.0429 14H19.5069L14.3109 5ZM12.0009 11L10.2689 14H13.7329L12.0009 11Z" fill="#22307A"/>
</g>
<defs>
<clipPath id="clip0_290_640">
<rect width="24" height="24" fill="white"/>
</clipPath>
</defs>
</svg>
