<svg width="27" height="27" viewBox="0 0 27 27" fill="none" xmlns="http://www.w3.org/2000/svg">
<path d="M22.7812 3.375H9.28125C9.05747 3.375 8.84286 3.4639 8.68463 3.62213C8.52639 3.78036 8.4375 3.99497 8.4375 4.21875V8.4375H4.21875C3.99497 8.4375 3.78036 8.52639 3.62213 8.68463C3.4639 8.84286 3.375 9.05747 3.375 9.28125V22.7812C3.375 23.005 3.4639 23.2196 3.62213 23.3779C3.78036 23.5361 3.99497 23.625 4.21875 23.625H17.7188C17.9425 23.625 18.1571 23.5361 18.3154 23.3779C18.4736 23.2196 18.5625 23.005 18.5625 22.7812V18.5625H22.7812C23.005 18.5625 23.2196 18.4736 23.3779 18.3154C23.5361 18.1571 23.625 17.9425 23.625 17.7188V4.21875C23.625 3.99497 23.5361 3.78036 23.3779 3.62213C23.2196 3.4639 23.005 3.375 22.7812 3.375ZM16.875 21.9375H5.0625V10.125H16.875V21.9375ZM21.9375 16.875H18.5625V9.28125C18.5625 9.05747 18.4736 8.84286 18.3154 8.68463C18.1571 8.52639 17.9425 8.4375 17.7188 8.4375H10.125V5.0625H21.9375V16.875Z" fill="#22307A"/>
</svg>
