<svg width="64" height="59" viewBox="0 0 64 59" fill="none" xmlns="http://www.w3.org/2000/svg">
<path d="M17.9752 41.6138C14.6166 44.4464 10.7616 46.5247 6.63973 47.7248C6.18572 47.9018 5.79346 48.2245 5.51625 48.6492C5.23904 49.0739 5.09033 49.5799 5.09033 50.0985C5.09033 50.6171 5.23904 51.1232 5.51625 51.5479C5.79346 51.9726 6.18572 52.2953 6.63973 52.4722C39.188 66.8155 59.8834 44.6441 56.7321 20.0484L62 8.33137H55.8854C48.2658 -1.71902 28.0407 -1.21397 31.3802 20.1999C31.3802 20.1999 20.5621 22.2706 6.7338 7.67481C6.41392 7.33571 6.01024 7.10214 5.57056 7.00178C5.13088 6.90141 4.67362 6.93845 4.25294 7.1085C3.83226 7.27856 3.46578 7.57451 3.1969 7.9613C2.92802 8.3481 2.76801 8.80953 2.73582 9.29095C1.27365 15.7447 2.00538 22.5469 4.79926 28.4727C7.59313 34.3985 12.2656 39.0586 17.9752 41.6138Z" stroke="#BEEAEC" stroke-width="4" stroke-linecap="round" stroke-linejoin="round"/>
</svg>
